# xmcd
#
# Track frame offsets: 
#        151
#        12939
#        24322
#        37122
#        48727
#        61964
#        75777
#        87930
#        100471
#        111777
#        124549
#        137143
#        150204
#        163816
#        176788
#        189901
#        204242
#        218436
#        230779
#        243535
#        258767
#        274311
#        287871
#
# Disc length: 4017 seconds
#
# Revision: 0
# Processed by: cddbd v1.5.2PL0 Copyright (c) Steve Scherf et al.
# Submitted via: ExactAudioCopy v0.95b4
#
DISCID=390faf17
DTITLE=Blind Lemon Jefferson - Texas Blues - Box - CD3
DYEAR=2007
DGENRE=Blues
TTITLE0=One Dime Blues
TTITLE1=Lonesome House Blues
TTITLE2=Blind Lemon's Penitentiary Blues
TTITLE3='Lectric Chair Blues
TTITLE4=See That My Grave Is Kept Clean
TTITLE5=Lemon's Worried Blues
TTITLE6=Mean Jumper Blues
TTITLE7=Balky Mule Blues
TTITLE8=Change My Luck Blues
TTITLE9=Prison Cell Blues
TTITLE10=Lemon's Cannon Ball Moan
TTITLE11=Long Lastin' Lovin'
TTITLE12=Piney Woods Money Mama
TTITLE13=Low Down Mojo Blues
TTITLE14=Competition Bed Blues
TTITLE15=Lock Step Blues
TTITLE16=Hangman's Blues
TTITLE17=Sad News Blues
TTITLE18=How Long How Long
TTITLE19=Lockstep Blues
TTITLE20=Hangman's Blues
TTITLE21=Christmas Eve Blues
TTITLE22=Happy New Year Blues
EXTD=
EXTT0=
EXTT1=
EXTT2=
EXTT3=
EXTT4=
EXTT5=
EXTT6=
EXTT7=
EXTT8=
EXTT9=
EXTT10=
EXTT11=
EXTT12=
EXTT13=
EXTT14=
EXTT15=
EXTT16=
EXTT17=
EXTT18=
EXTT19=
EXTT20=
EXTT21=
EXTT22=
PLAYORDER=
